# xmcd
#
# Track frame offsets: 
#        150
#        24101
#        61337
#        88802
#        115925
#        139765
#        164023
#        195856
#        230027
#        259480
#        282579
#        314097
#
# Disc length: 4588 seconds
#
# Revision: 0
# Processed by: cddbd v1.5.2PL0 Copyright (c) Steve Scherf et al.
# Submitted via: ExactAudioCopy v0.95b4
#
DISCID=b211ea0c
DTITLE=Various Artist - NextFloor too house
DYEAR=2007
DGENRE=House
TTITLE0=Brasil - KALEIDO with FreeTEMPO
TTITLE1=ENDLESS FLIGHT (DJ KAWASAKI REMIX) - KYOTO JAZZ MASSIVE
TTITLE2=Though you Ignore (Evergreen Rainy Rhodes Dub) - JAZZIDA GRAND
TTITLE2=E
TTITLE3=Love is answer - STUDIO APARTMENT feat. Joi Cardwell
TTITLE4=Good Times Just Keep Us Hanging On - ELMIO with Cloudberry Jam
TTITLE5=Your Song (Evening Version) - Kentaro Takizawa feat. Ryohei
TTITLE6=funk premire - i-dep
TTITLE7=BEAUTIFUL feat. Karin - DJ KAWASAKI
TTITLE8=Love, Trust, Believe - DAISHI DANCE
TTITLE9=Life is Sweet (Piano Version) - cargo
TTITLE10=Fly High - M-SWIFT feat. Sharon Harris
TTITLE11=No Reason No Rhyme - Sunaga t Experience
EXTD=
EXTT0=
EXTT1=
EXTT2=
EXTT3=
EXTT4=
EXTT5=
EXTT6=
EXTT7=
EXTT8=
EXTT9=
EXTT10=
EXTT11=
PLAYORDER=
